<svg xmlns="http://www.w3.org/2000/svg" width="28" height="32"><path d="M26.5 16.5h-3A1.5 1.5 0 0122 15V9a1.5 1.5 0 011.5-1.5h3A1.5 1.5 0 0128 9v6a1.5 1.5 0 01-1.5 1.5zm-3-15a1.5 1.5 0 013 0V6h-3V1.5zm-8 23h-3A1.5 1.5 0 0111 23v-6a1.5 1.5 0 011.5-1.5h3A1.5 1.5 0 0117 17v6a1.5 1.5 0 01-1.5 1.5zm-3-23a1.5 1.5 0 013 0V14h-3V1.5zm-8 19h-3A1.5 1.5 0 010 19v-6a1.5 1.5 0 011.5-1.5h3A1.5 1.5 0 016 13v6a1.5 1.5 0 01-1.5 1.5zm-3-19a1.5 1.5 0 013 0V10h-3V1.5zm3 29a1.5 1.5 0 01-3 0V22h3v8.5zm11 0a1.5 1.5 0 01-3 0V26h3v4.5zm11 0a1.5 1.5 0 01-3 0V18h3v12.5z" fill="#95e1d3" fill-rule="evenodd"/></svg>